<?xml version="1.0" standalone="no"?>
<!DOCTYPE svg PUBLIC "-//W3C//DTD SVG 1.1//EN" "http://www.w3.org/Graphics/SVG/1.1/DTD/svg11.dtd">
<svg version="1.1" xmlns="http://www.w3.org/2000/svg" viewBox="0 0 945.8803082651002 295.3446109896904" width="945.8803082651002" height="295.3446109896904"><!-- svg-source:excalidraw --><metadata></metadata><defs><style class="style-fonts">
      </style></defs><g stroke-linecap="round" transform="translate(10 10) rotate(0 462.9401541325501 137.6723054948452)"><path d="M7.86 8.16 C7.86 8.16, 7.86 8.16, 7.86 8.16 M7.86 8.16 C7.86 8.16, 7.86 8.16, 7.86 8.16 M0.78 28.5 C10.2 17.66, 19.63 6.81, 25.05 0.58 M0.78 28.5 C9.84 18.08, 18.9 7.66, 25.05 0.58 M0.26 41.3 C14.28 25.16, 28.31 9.02, 36.34 -0.21 M0.26 41.3 C11.72 28.11, 23.18 14.93, 36.34 -0.21 M0.39 53.34 C18.29 32.74, 36.2 12.15, 46.97 -0.25 M0.39 53.34 C19.02 31.91, 37.64 10.48, 46.97 -0.25 M0.52 65.38 C14.56 49.23, 28.59 33.09, 57.6 -0.28 M0.52 65.38 C21.63 41.09, 42.74 16.81, 57.6 -0.28 M0 78.17 C14.06 61.99, 28.13 45.81, 67.57 0.44 M0 78.17 C21.29 53.68, 42.58 29.19, 67.57 0.44 M0.13 90.22 C19.01 68.5, 37.88 46.79, 78.2 0.41 M0.13 90.22 C26.58 59.79, 53.04 29.36, 78.2 0.41 M0.26 102.26 C29.06 69.13, 57.85 36.01, 88.83 0.37 M0.26 102.26 C30.22 67.8, 60.17 33.35, 88.83 0.37 M0.4 114.3 C21.8 89.67, 43.21 65.05, 99.46 0.34 M0.4 114.3 C28.36 82.14, 56.31 49.97, 99.46 0.34 M0.53 126.34 C36.04 85.49, 71.55 44.64, 110.09 0.3 M0.53 126.34 C43.27 77.17, 86.01 28.01, 110.09 0.3 M0.66 138.38 C34.51 99.45, 68.35 60.52, 120.72 0.27 M0.66 138.38 C25.78 109.48, 50.9 80.59, 120.72 0.27 M0.8 150.42 C29.18 117.77, 57.56 85.13, 131.35 0.23 M0.8 150.42 C52.15 91.35, 103.5 32.27, 131.35 0.23 M0.27 163.22 C46.42 110.13, 92.57 57.05, 141.98 0.2 M0.27 163.22 C54.21 101.17, 108.15 39.12, 141.98 0.2 M0.41 175.26 C52.26 115.61, 104.11 55.96, 152.61 0.16 M0.41 175.26 C57.02 110.13, 113.63 45.01, 152.61 0.16 M0.54 187.3 C50.54 129.78, 100.54 72.26, 163.24 0.13 M0.54 187.3 C34.51 148.23, 68.47 109.15, 163.24 0.13 M0.67 199.34 C44.52 148.9, 88.36 98.46, 173.87 0.09 M0.67 199.34 C61.55 129.31, 122.43 59.27, 173.87 0.09 M0.81 211.38 C66.99 135.24, 133.17 59.11, 184.5 0.06 M0.81 211.38 C66.48 135.83, 132.15 60.29, 184.5 0.06 M0.94 223.42 C47.04 170.39, 93.13 117.36, 195.13 0.03 M0.94 223.42 C51.28 165.52, 101.61 107.61, 195.13 0.03 M0.42 236.22 C60.25 167.39, 120.08 98.56, 205.76 -0.01 M0.42 236.22 C50.17 178.98, 99.93 121.74, 205.76 -0.01 M0.55 248.26 C86.76 149.08, 172.97 49.91, 216.39 -0.04 M0.55 248.26 C48.85 192.69, 97.16 137.12, 216.39 -0.04 M2.65 258.03 C65.65 185.56, 128.65 113.09, 227.02 -0.08 M2.65 258.03 C76.73 172.81, 150.82 87.59, 227.02 -0.08 M6.72 265.55 C91.87 167.6, 177.01 69.65, 237.65 -0.11 M6.72 265.55 C70.36 192.34, 133.99 119.14, 237.65 -0.11 M12.76 270.79 C102.78 167.23, 192.81 63.67, 248.28 -0.15 M12.76 270.79 C69.22 205.84, 125.68 140.89, 248.28 -0.15 M20.76 273.78 C115.59 164.7, 210.41 55.62, 258.91 -0.18 M20.76 273.78 C79.43 206.29, 138.1 138.79, 258.91 -0.18 M30.08 275.25 C83.45 213.87, 136.81 152.48, 269.54 -0.22 M30.08 275.25 C87.81 208.84, 145.54 142.43, 269.54 -0.22 M40.06 275.97 C103.48 203.01, 166.9 130.05, 280.17 -0.25 M40.06 275.97 C104.8 201.5, 169.54 127.02, 280.17 -0.25 M50.69 275.94 C123.49 192.19, 196.29 108.45, 290.8 -0.28 M50.69 275.94 C136.15 177.62, 221.62 79.3, 290.8 -0.28 M61.32 275.9 C149.05 174.97, 236.79 74.04, 300.78 0.44 M61.32 275.9 C128.44 198.68, 195.57 121.46, 300.78 0.44 M71.95 275.87 C143.13 193.99, 214.3 112.11, 311.41 0.4 M71.95 275.87 C133.62 204.92, 195.3 133.97, 311.41 0.4 M82.58 275.84 C137.21 212.98, 191.85 150.13, 322.04 0.37 M82.58 275.84 C158.01 189.05, 233.45 102.27, 322.04 0.37 M93.21 275.8 C177.61 178.71, 262.01 81.62, 332.67 0.33 M93.21 275.8 C182 173.66, 270.79 71.51, 332.67 0.33 M103.84 275.77 C198.69 166.65, 293.54 57.54, 343.3 0.3 M103.84 275.77 C154.56 217.41, 205.29 159.06, 343.3 0.3 M114.47 275.73 C207.79 168.38, 301.1 61.03, 353.93 0.26 M114.47 275.73 C203.56 173.25, 292.64 70.76, 353.93 0.26 M125.1 275.7 C206.59 181.96, 288.07 88.22, 364.56 0.23 M125.1 275.7 C199.43 190.19, 273.76 104.68, 364.56 0.23 M135.73 275.66 C184.41 219.66, 233.09 163.67, 375.19 0.19 M135.73 275.66 C204.98 195.99, 274.24 116.33, 375.19 0.19 M146.36 275.63 C231.19 178.04, 316.03 80.44, 385.82 0.16 M146.36 275.63 C230.65 178.66, 314.94 81.69, 385.82 0.16 M156.99 275.59 C243.42 176.16, 329.86 76.73, 396.45 0.12 M156.99 275.59 C205.32 219.99, 253.66 164.38, 396.45 0.12 M167.62 275.56 C228.68 205.31, 289.75 135.06, 407.08 0.09 M167.62 275.56 C258.47 171.04, 349.33 66.53, 407.08 0.09 M178.25 275.52 C251.03 191.8, 323.8 108.08, 417.71 0.06 M178.25 275.52 C259.92 181.58, 341.58 87.63, 417.71 0.06 M188.88 275.49 C256.62 197.56, 324.37 119.63, 428.34 0.02 M188.88 275.49 C245.63 210.21, 302.37 144.93, 428.34 0.02 M199.51 275.46 C258.6 207.48, 317.7 139.5, 438.97 -0.01 M199.51 275.46 C292.76 168.18, 386.01 60.91, 438.97 -0.01 M210.14 275.42 C258.46 219.83, 306.79 164.24, 449.6 -0.05 M210.14 275.42 C274.95 200.87, 339.76 126.31, 449.6 -0.05 M220.77 275.39 C287.24 198.92, 353.72 122.45, 460.23 -0.08 M220.77 275.39 C312.05 170.38, 403.33 65.38, 460.23 -0.08 M231.4 275.35 C326.94 165.44, 422.48 55.54, 470.86 -0.12 M231.4 275.35 C285.97 212.57, 340.54 149.8, 470.86 -0.12 M242.03 275.32 C303.78 204.28, 365.53 133.24, 481.49 -0.15 M242.03 275.32 C290.43 219.64, 338.82 163.97, 481.49 -0.15 M252 276.04 C344.49 169.65, 436.97 63.25, 492.12 -0.19 M252 276.04 C337.91 177.22, 423.81 78.39, 492.12 -0.19 M262.63 276 C340.09 186.9, 417.54 97.8, 502.75 -0.22 M262.63 276 C332.15 196.03, 401.67 116.06, 502.75 -0.22 M273.26 275.97 C343.98 194.62, 414.7 113.27, 513.38 -0.25 M273.26 275.97 C347.91 190.1, 422.55 104.23, 513.38 -0.25 M283.89 275.93 C374.89 171.25, 465.89 66.57, 523.35 0.47 M283.89 275.93 C363.47 184.4, 443.04 92.86, 523.35 0.47 M294.52 275.9 C386.62 169.96, 478.72 64.01, 533.98 0.43 M294.52 275.9 C351.85 209.96, 409.17 144.01, 533.98 0.43 M305.15 275.87 C355.93 217.45, 406.71 159.03, 544.61 0.4 M305.15 275.87 C393.97 173.69, 482.8 71.51, 544.61 0.4 M315.78 275.83 C396.35 183.15, 476.92 90.46, 555.24 0.36 M315.78 275.83 C386.91 194, 458.05 112.18, 555.24 0.36 M326.41 275.8 C415.96 172.79, 505.5 69.78, 565.87 0.33 M326.41 275.8 C397.63 193.88, 468.84 111.96, 565.87 0.33 M337.04 275.76 C421.95 178.09, 506.86 80.41, 576.5 0.29 M337.04 275.76 C418.26 182.34, 499.47 88.91, 576.5 0.29 M347.67 275.73 C418.15 194.65, 488.64 113.57, 587.14 0.26 M347.67 275.73 C432.75 177.86, 517.82 79.99, 587.14 0.26 M358.3 275.69 C422.2 202.19, 486.1 128.68, 597.77 0.22 M358.3 275.69 C411.6 214.39, 464.89 153.08, 597.77 0.22 M368.93 275.66 C458.82 172.26, 548.71 68.85, 608.4 0.19 M368.93 275.66 C426.34 209.62, 483.75 143.58, 608.4 0.19 M379.56 275.62 C433.35 213.75, 487.13 151.88, 619.03 0.16 M379.56 275.62 C452.76 191.42, 525.96 107.21, 619.03 0.16 M390.19 275.59 C460.26 194.98, 530.33 114.38, 629.66 0.12 M390.19 275.59 C485.37 166.1, 580.55 56.6, 629.66 0.12 M400.82 275.56 C449.35 219.73, 497.88 163.91, 640.29 0.09 M400.82 275.56 C484.28 179.55, 567.74 83.54, 640.29 0.09 M411.45 275.52 C482.11 194.24, 552.77 112.96, 650.92 0.05 M411.45 275.52 C489.7 185.51, 567.94 95.5, 650.92 0.05 M422.08 275.49 C493.73 193.07, 565.37 110.66, 661.55 0.02 M422.08 275.49 C473 216.91, 523.92 158.34, 661.55 0.02 M432.71 275.45 C505.79 191.39, 578.86 107.33, 672.18 -0.02 M432.71 275.45 C499.14 199.04, 565.57 122.62, 672.18 -0.02 M443.34 275.42 C499.82 210.45, 556.3 145.47, 682.81 -0.05 M443.34 275.42 C529.81 175.94, 616.29 76.47, 682.81 -0.05 M453.97 275.38 C506.36 215.12, 558.74 154.86, 693.44 -0.09 M453.97 275.38 C537.98 178.75, 621.98 82.11, 693.44 -0.09 M464.6 275.35 C526.33 204.34, 588.06 133.33, 704.07 -0.12 M464.6 275.35 C550.48 176.56, 636.35 77.77, 704.07 -0.12 M475.23 275.31 C524.37 218.79, 573.5 162.27, 714.7 -0.16 M475.23 275.31 C571 165.15, 666.76 54.98, 714.7 -0.16 M485.21 276.03 C541.27 211.54, 597.33 147.05, 725.33 -0.19 M485.21 276.03 C574.39 173.44, 663.57 70.85, 725.33 -0.19 M495.84 276 C545.59 218.77, 595.34 161.53, 735.96 -0.22 M495.84 276 C574.9 185.05, 653.96 94.1, 735.96 -0.22 M506.47 275.96 C591.69 177.93, 676.91 79.9, 746.59 -0.26 M506.47 275.96 C570.65 202.14, 634.82 128.31, 746.59 -0.26 M517.1 275.93 C574.8 209.55, 632.5 143.17, 756.56 0.46 M517.1 275.93 C611.67 167.14, 706.24 58.35, 756.56 0.46 M527.73 275.9 C584.6 210.48, 641.46 145.06, 767.19 0.43 M527.73 275.9 C603.3 188.96, 678.87 102.03, 767.19 0.43 M538.36 275.86 C609.27 194.29, 680.18 112.71, 777.82 0.39 M538.36 275.86 C611.28 191.97, 684.21 108.08, 777.82 0.39 M548.99 275.83 C601.68 215.21, 654.37 154.6, 788.45 0.36 M548.99 275.83 C617.77 196.7, 686.55 117.58, 788.45 0.36 M559.62 275.79 C616.07 210.86, 672.52 145.92, 799.08 0.32 M559.62 275.79 C635.6 188.38, 711.58 100.98, 799.08 0.32 M570.25 275.76 C633.68 202.79, 697.11 129.83, 809.71 0.29 M570.25 275.76 C655.2 178.04, 740.14 80.32, 809.71 0.29 M580.88 275.72 C651.83 194.11, 722.78 112.49, 820.34 0.25 M580.88 275.72 C663.25 180.96, 745.63 86.2, 820.34 0.25 M591.51 275.69 C653.22 204.7, 714.93 133.72, 830.97 0.22 M591.51 275.69 C685.41 167.67, 779.31 59.65, 830.97 0.22 M602.14 275.65 C694.98 168.85, 787.83 62.05, 841.6 0.19 M602.14 275.65 C661.27 207.63, 720.4 139.61, 841.6 0.19 M612.77 275.62 C686.44 190.87, 760.11 106.12, 852.23 0.15 M612.77 275.62 C678.63 199.86, 744.49 124.09, 852.23 0.15 M623.4 275.59 C717.61 167.21, 811.81 58.84, 862.86 0.12 M623.4 275.59 C704.82 181.92, 786.25 88.25, 862.86 0.12 M634.03 275.55 C693.26 207.42, 752.49 139.28, 873.49 0.08 M634.03 275.55 C725.17 170.71, 816.31 65.86, 873.49 0.08 M644.66 275.52 C709.35 201.09, 774.05 126.67, 884.12 0.05 M644.66 275.52 C713.79 195.99, 782.93 116.46, 884.12 0.05 M655.29 275.48 C734.76 184.06, 814.24 92.63, 894.1 0.77 M655.29 275.48 C723.97 196.48, 792.65 117.47, 894.1 0.77 M665.92 275.45 C748.86 180.04, 831.79 84.64, 904.07 1.49 M665.92 275.45 C715.93 217.92, 765.94 160.38, 904.07 1.49 M676.55 275.41 C757.45 182.35, 838.35 89.28, 912.08 4.47 M676.55 275.41 C741.62 200.56, 806.69 125.7, 912.08 4.47 M687.18 275.38 C740.75 213.75, 794.33 152.12, 918.77 8.97 M687.18 275.38 C773.45 176.14, 859.71 76.91, 918.77 8.97 M697.81 275.34 C761.52 202.05, 825.24 128.76, 923.49 15.72 M697.81 275.34 C749.39 216.01, 800.97 156.68, 923.49 15.72 M708.44 275.31 C773.03 201.01, 837.62 126.7, 926.25 24.75 M708.44 275.31 C772.98 201.06, 837.52 126.82, 926.25 24.75 M718.41 276.03 C775.73 210.09, 833.05 144.15, 926.39 36.79 M718.41 276.03 C786.59 197.61, 854.76 119.19, 926.39 36.79 M729.04 276 C806.94 186.39, 884.83 96.78, 926.52 48.83 M729.04 276 C779.04 218.48, 829.04 160.97, 926.52 48.83 M739.67 275.96 C790.57 217.41, 841.47 158.86, 926 61.62 M739.67 275.96 C806.57 199.01, 873.46 122.06, 926 61.62 M750.3 275.93 C811.67 205.33, 873.04 134.73, 926.13 73.66 M750.3 275.93 C814.72 201.83, 879.13 127.73, 926.13 73.66 M760.93 275.89 C818.5 209.67, 876.07 143.44, 926.26 85.7 M760.93 275.89 C795.45 236.19, 829.97 196.48, 926.26 85.7 M771.56 275.86 C811.47 229.95, 851.38 184.04, 926.39 97.75 M771.56 275.86 C819.66 220.53, 867.76 165.2, 926.39 97.75 M782.2 275.82 C839.55 209.84, 896.91 143.86, 926.53 109.79 M782.2 275.82 C834.9 215.19, 887.6 154.56, 926.53 109.79 M792.83 275.79 C844.96 215.81, 897.1 155.84, 926.01 122.58 M792.83 275.79 C821.12 243.24, 849.42 210.68, 926.01 122.58 M803.46 275.75 C833 241.77, 862.54 207.79, 926.14 134.62 M803.46 275.75 C830.18 245.01, 856.91 214.26, 926.14 134.62 M814.09 275.72 C847.12 237.71, 880.16 199.71, 926.27 146.66 M814.09 275.72 C853.33 230.58, 892.57 185.44, 926.27 146.66 M824.72 275.68 C857.45 238.02, 890.19 200.36, 926.4 158.7 M824.72 275.68 C861.13 233.79, 897.54 191.91, 926.4 158.7 M835.35 275.65 C861.3 245.8, 887.25 215.94, 926.54 170.75 M835.35 275.65 C858.33 249.2, 881.32 222.76, 926.54 170.75 M845.98 275.62 C862.61 256.48, 879.24 237.34, 926.01 183.54 M845.98 275.62 C868.28 249.96, 890.59 224.3, 926.01 183.54 M856.61 275.58 C881.15 247.35, 905.69 219.11, 926.15 195.58 M856.61 275.58 C870.55 259.54, 884.49 243.51, 926.15 195.58 M867.24 275.55 C884.29 255.93, 901.34 236.31, 926.28 207.62 M867.24 275.55 C883.41 256.94, 899.59 238.33, 926.28 207.62 M877.87 275.51 C890.69 260.76, 903.51 246.01, 926.41 219.66 M877.87 275.51 C893.77 257.22, 909.67 238.92, 926.41 219.66 M888.5 275.48 C899.11 263.27, 909.71 251.07, 926.55 231.7 M888.5 275.48 C901.43 260.6, 914.36 245.72, 926.55 231.7 M899.78 274.69 C906.68 266.76, 913.57 258.83, 926.68 243.75 M899.78 274.69 C908.32 264.86, 916.87 255.03, 926.68 243.75 M913.69 270.88 C916.59 267.55, 919.48 264.22, 922.88 260.31 M913.69 270.88 C916.21 267.99, 918.72 265.09, 922.88 260.31" stroke="#33383d" stroke-width="1" fill="none"></path><path d="M32 0 C348.41 0, 664.82 0, 893.88 0 M32 0 C216.66 0, 401.32 0, 893.88 0 M893.88 0 C915.21 0, 925.88 10.67, 925.88 32 M893.88 0 C915.21 0, 925.88 10.67, 925.88 32 M925.88 32 C925.88 74.51, 925.88 117.02, 925.88 243.34 M925.88 32 C925.88 76.7, 925.88 121.4, 925.88 243.34 M925.88 243.34 C925.88 264.68, 915.21 275.34, 893.88 275.34 M925.88 243.34 C925.88 264.68, 915.21 275.34, 893.88 275.34 M893.88 275.34 C597.48 275.34, 301.08 275.34, 32 275.34 M893.88 275.34 C699.76 275.34, 505.64 275.34, 32 275.34 M32 275.34 C10.67 275.34, 0 264.68, 0 243.34 M32 275.34 C10.67 275.34, 0 264.68, 0 243.34 M0 243.34 C0 194.69, 0 146.03, 0 32 M0 243.34 C0 189, 0 134.66, 0 32 M0 32 C0 10.67, 10.67 0, 32 0 M0 32 C0 10.67, 10.67 0, 32 0" stroke="#202325" stroke-width="2" fill="none"></path></g><g stroke-linecap="round" transform="translate(482.1581954787571 34.70423805085011) rotate(0 25.91296083579482 65.20035307070975)"><path d="M32.5 16.5 C36.36 29, 39.74 43.01, 45.33 49.5 C52.49 64.93, 52.47 66.49, 45.33 82.5 C41.09 94.96, 38.05 103, 32.5 113.9 C25.96 132.27, 28.95 132.77, 19.5 113.9 C18.55 107.88, 10.75 96.66, 6.5 82.5 C-0.35 67.72, -2.21 68.86, 6.5 49.5 C13.77 35.51, 16.94 24.39, 19.5 16.5 C29.41 1.75, 29.14 -3.02, 32.5 16.5" stroke="none" stroke-width="0" fill="#121212"></path><path d="M32.5 16.5 C36.02 23.15, 36.59 29.64, 45.33 49.5 M32.5 16.5 C35.22 23.92, 37.8 30.89, 45.33 49.5 M45.33 49.5 C53.58 66.79, 50.93 68, 45.33 82.5 M45.33 49.5 C49.61 64.37, 49.75 66.97, 45.33 82.5 M45.33 82.5 C41.88 92.33, 37.44 98.96, 32.5 113.9 M45.33 82.5 C41.38 91.92, 37.75 102.77, 32.5 113.9 M32.5 113.9 C26.75 131.23, 26.34 130.27, 19.5 113.9 M32.5 113.9 C24.48 129.52, 27.18 129.83, 19.5 113.9 M19.5 113.9 C15.17 103.42, 10.45 93.01, 6.5 82.5 M19.5 113.9 C15.9 103.47, 11.6 91.45, 6.5 82.5 M6.5 82.5 C0.99 67.06, -1.15 67.31, 6.5 49.5 M6.5 82.5 C2 64.86, -0.62 65.1, 6.5 49.5 M6.5 49.5 C10.5 38.8, 13.96 27.37, 19.5 16.5 M6.5 49.5 C11.34 39.66, 15.03 30.97, 19.5 16.5 M19.5 16.5 C24.69 1.52, 26.32 -1.33, 32.5 16.5 M19.5 16.5 C25.25 0.72, 24.8 1.3, 32.5 16.5" stroke="#d3d3d3" stroke-width="2" fill="none"></path></g><g stroke-linecap="round" transform="translate(407.1548192487762 34.4119180948328) rotate(0 25.91296083579482 65.20035307070975)"><path d="M32.5 16.5 C33.96 28.36, 41.1 36.24, 45.33 49.5 C52.47 66.49, 52.89 67.88, 45.33 82.5 C41.67 93.29, 36.27 106.44, 32.5 113.9 C28.95 132.77, 23.37 129.76, 19.5 113.9 C13.16 103.68, 12.67 100.78, 6.5 82.5 C-2.21 68.86, 2.64 68.15, 6.5 49.5 C11.43 38.3, 18.05 29.54, 19.5 16.5 C29.14 -3.02, 23.54 0.75, 32.5 16.5" stroke="none" stroke-width="0" fill="#121212"></path><path d="M32.5 16.5 C33.87 22.37, 36.39 30.1, 45.33 49.5 M32.5 16.5 C35.42 24.82, 40.12 34.38, 45.33 49.5 M45.33 49.5 C50.93 68, 49.9 64.59, 45.33 82.5 M45.33 49.5 C49.75 66.97, 50.62 65.07, 45.33 82.5 M45.33 82.5 C39.34 94.62, 36.55 103.06, 32.5 113.9 M45.33 82.5 C41.86 93.61, 36.92 104.65, 32.5 113.9 M32.5 113.9 C26.34 130.27, 24.68 129.63, 19.5 113.9 M32.5 113.9 C27.18 129.83, 27.19 130.35, 19.5 113.9 M19.5 113.9 C15.6 105.58, 12.55 93.19, 6.5 82.5 M19.5 113.9 C15.08 100.96, 9.52 89.71, 6.5 82.5 M6.5 82.5 C-1.15 67.31, 1.74 65.01, 6.5 49.5 M6.5 82.5 C-0.62 65.1, 0.78 63.99, 6.5 49.5 M6.5 49.5 C7.81 42.39, 11.85 33.76, 19.5 16.5 M6.5 49.5 C11.83 37.77, 15.49 25.18, 19.5 16.5 M19.5 16.5 C26.32 -1.33, 25.35 0.63, 32.5 16.5 M19.5 16.5 C24.8 1.3, 27.84 -0.31, 32.5 16.5" stroke="#d3d3d3" stroke-width="2" fill="none"></path></g><g stroke-linecap="round" transform="translate(375.9755264889318 73.31008005598414) rotate(0 96.96462764361877 93.81130641943673)"><path d="M97.06 -0.3 C108.95 -1.8, 122.71 2.54, 134.16 7.24 C145.61 11.95, 156.95 19.52, 165.76 27.94 C174.57 36.35, 182.22 46.74, 187.01 57.74 C191.79 68.75, 194.57 81.99, 194.48 93.97 C194.4 105.94, 191.23 118.46, 186.5 129.62 C181.77 140.77, 174.73 152.55, 166.11 160.9 C157.5 169.25, 146.36 175.37, 134.82 179.72 C123.28 184.07, 109.27 186.81, 96.88 187 C84.49 187.19, 72.01 185.46, 60.47 180.86 C48.93 176.27, 36.51 167.85, 27.65 159.42 C18.79 150.99, 12.03 141.06, 7.32 130.27 C2.61 119.49, -0.74 106.64, -0.62 94.7 C-0.49 82.75, 3.2 69.66, 8.08 58.59 C12.95 47.53, 20.1 36.83, 28.64 28.31 C37.18 19.79, 46.9 12, 59.33 7.48 C71.76 2.95, 94.77 1.8, 103.22 1.15 C111.66 0.5, 110.21 2.26, 109.98 3.55 M105.58 2 C117.38 2, 132.29 6.37, 143.26 11.75 C154.23 17.13, 163.49 24.9, 171.42 34.26 C179.34 43.63, 186.88 56.21, 190.79 67.94 C194.71 79.67, 196.38 93.02, 194.9 104.63 C193.41 116.25, 187.93 127.53, 181.89 137.64 C175.85 147.75, 168.14 157.56, 158.66 165.31 C149.18 173.05, 137.11 180.66, 125.03 184.13 C112.95 187.61, 98.46 187.58, 86.19 186.17 C73.93 184.76, 62.09 181.04, 51.43 175.68 C40.76 170.32, 30.3 163.19, 22.19 153.99 C14.09 144.79, 6.38 132.18, 2.79 120.5 C-0.79 108.83, -0.61 96.05, 0.67 83.92 C1.95 71.8, 4.59 58.2, 10.48 47.75 C16.37 37.31, 26.28 28.4, 36.03 21.25 C45.77 14.1, 56.91 8.18, 68.96 4.85 C81.01 1.53, 102.08 1.85, 108.35 1.3 C114.63 0.75, 107.2 0.03, 106.61 1.54" stroke="none" stroke-width="0" fill="#fa6969"></path><path d="M95.75 -0.42 C107.47 -1.84, 120.97 3.14, 132.53 7.58 C144.08 12.01, 155.97 18.16, 165.07 26.21 C174.16 34.26, 182.38 44.95, 187.08 55.87 C191.77 66.79, 193.16 79.7, 193.21 91.74 C193.27 103.78, 191.97 116.75, 187.43 128.1 C182.89 139.46, 174.69 151.04, 165.97 159.86 C157.25 168.68, 146.53 176.32, 135.11 181.02 C123.7 185.72, 109.8 188.21, 97.47 188.04 C85.14 187.87, 72.44 184.44, 61.15 179.99 C49.86 175.55, 38.72 169.44, 29.73 161.38 C20.75 153.32, 12.16 142.65, 7.25 131.65 C2.34 120.64, 0.27 107.44, 0.28 95.36 C0.3 83.28, 2.81 70.45, 7.34 59.17 C11.87 47.88, 18.98 36.16, 27.48 27.65 C35.99 19.14, 46.53 12.63, 58.36 8.11 C70.19 3.59, 91.25 1.55, 98.44 0.53 C105.63 -0.48, 101.47 0.5, 101.5 2.02 M97.84 1.44 C109.64 0.23, 125.28 4.15, 137.04 8.58 C148.8 13.01, 159.89 19.35, 168.39 28.02 C176.9 36.69, 183.97 49.13, 188.07 60.6 C192.18 72.07, 193.22 85.12, 193.04 96.83 C192.87 108.54, 191.93 120.15, 187.02 130.84 C182.12 141.53, 172.69 152.8, 163.62 160.98 C154.55 169.16, 144.31 175.57, 132.62 179.93 C120.93 184.29, 105.91 187.36, 93.48 187.13 C81.06 186.9, 69.19 183.31, 58.06 178.55 C46.94 173.79, 35.58 166.81, 26.76 158.56 C17.93 150.3, 9.39 140.18, 5.12 129.02 C0.84 117.86, 0.44 103.56, 1.11 91.59 C1.78 79.63, 4.52 67.97, 9.15 57.24 C13.79 46.51, 20.11 35.84, 28.93 27.19 C37.74 18.55, 50.44 9.83, 62.05 5.38 C73.66 0.93, 92.55 0.93, 98.58 0.49 C104.62 0.05, 98 1.3, 98.25 2.75" stroke="#d3d3d3" stroke-width="2" fill="none"></path></g><g stroke-linecap="round" transform="translate(419.43622121995213 134.73188441840466) rotate(0 10.866725511784807 12.538529436675162)"><path d="M11.63 0.09 C13.85 0.22, 16.48 1.79, 18.15 3.59 C19.82 5.4, 21.31 8.17, 21.65 10.92 C21.98 13.66, 21.52 17.72, 20.19 20.06 C18.85 22.4, 15.9 24.37, 13.65 24.96 C11.4 25.54, 8.74 24.76, 6.7 23.59 C4.66 22.42, 2.52 20.35, 1.41 17.95 C0.3 15.54, -0.53 11.82, 0.03 9.16 C0.59 6.51, 2.71 3.48, 4.77 2.03 C6.82 0.58, 11.12 0.74, 12.37 0.48 C13.63 0.22, 12.39 0.31, 12.3 0.45 M8.81 0.31 C10.94 -0.26, 14.34 0.54, 16.45 1.94 C18.57 3.33, 20.73 6.12, 21.49 8.69 C22.25 11.25, 21.84 14.86, 20.99 17.31 C20.15 19.75, 18.45 22.04, 16.43 23.37 C14.42 24.69, 11.13 25.65, 8.91 25.26 C6.69 24.88, 4.7 23.19, 3.12 21.04 C1.54 18.89, -0.38 15.04, -0.55 12.34 C-0.72 9.63, 0.47 6.95, 2.11 4.82 C3.75 2.69, 8.24 0.31, 9.3 -0.44 C10.36 -1.18, 8.44 0.12, 8.48 0.35" stroke="none" stroke-width="0" fill="#121212"></path><path d="M10.26 0.45 C12.5 0.19, 15.79 0.93, 17.75 2.43 C19.7 3.93, 21.6 6.85, 21.99 9.44 C22.39 12.03, 21.25 15.55, 20.11 17.96 C18.97 20.37, 17.29 22.77, 15.16 23.9 C13.03 25.03, 9.57 25.44, 7.32 24.74 C5.06 24.04, 2.88 21.98, 1.62 19.69 C0.36 17.4, -0.59 13.84, -0.25 11.02 C0.1 8.2, 1.79 4.57, 3.67 2.76 C5.56 0.96, 9.86 0.55, 11.06 0.21 C12.25 -0.14, 10.87 0.48, 10.85 0.68 M11.49 -0.22 C13.75 -0.14, 17.29 1.66, 19.06 3.63 C20.82 5.61, 21.99 8.91, 22.09 11.63 C22.2 14.36, 21.09 17.8, 19.7 19.98 C18.3 22.17, 15.91 24.03, 13.72 24.73 C11.53 25.43, 8.79 25.25, 6.56 24.19 C4.33 23.13, 1.27 20.82, 0.33 18.36 C-0.61 15.9, 0.07 12.2, 0.93 9.42 C1.79 6.64, 3.57 3.19, 5.47 1.69 C7.38 0.2, 11.35 0.61, 12.36 0.46 C13.37 0.32, 11.51 0.73, 11.54 0.81" stroke="#d3d3d3" stroke-width="2" fill="none"></path></g><g stroke-linecap="round" transform="translate(492.9969956937448 134.9391076857246) rotate(0 10.866725511784807 12.538529436675162)"><path d="M8.02 0.27 C10.16 -0.55, 13.53 -0.42, 15.74 0.86 C17.94 2.15, 20.35 5.37, 21.26 7.98 C22.17 10.58, 21.88 14.04, 21.21 16.49 C20.53 18.95, 19.08 21.28, 17.21 22.71 C15.33 24.14, 12.38 25.36, 9.95 25.07 C7.51 24.77, 4.23 22.96, 2.6 20.95 C0.97 18.93, 0.2 15.55, 0.17 12.96 C0.15 10.37, 1.06 7.52, 2.46 5.41 C3.85 3.31, 7.5 1.17, 8.55 0.35 C9.6 -0.48, 8.76 0.24, 8.75 0.47 M11.47 0.23 C13.79 0.23, 16.93 1.83, 18.62 3.68 C20.3 5.54, 21.32 8.75, 21.58 11.35 C21.84 13.94, 21.45 16.98, 20.2 19.24 C18.95 21.49, 16.25 24, 14.1 24.89 C11.95 25.79, 9.54 25.73, 7.3 24.61 C5.06 23.48, 1.92 20.57, 0.67 18.17 C-0.58 15.77, -0.85 12.89, -0.2 10.19 C0.44 7.49, 2.7 3.67, 4.53 1.96 C6.36 0.25, 9.58 0.3, 10.77 -0.06 C11.97 -0.42, 11.53 -0.51, 11.72 -0.2" stroke="none" stroke-width="0" fill="#121212"></path><path d="M9.9 -0.15 C12.2 -0.74, 15.57 0.18, 17.42 1.64 C19.26 3.1, 20.35 5.98, 20.95 8.6 C21.55 11.21, 21.93 14.76, 21.02 17.34 C20.1 19.92, 17.59 22.75, 15.46 24.07 C13.33 25.38, 10.52 25.86, 8.23 25.21 C5.95 24.56, 3.1 22.48, 1.74 20.15 C0.39 17.82, -0.14 13.92, 0.11 11.24 C0.36 8.55, 1.65 5.86, 3.26 4.06 C4.88 2.27, 8.57 1.06, 9.8 0.46 C11.03 -0.14, 10.55 0.29, 10.65 0.44 M11.07 -0.18 C13.43 -0.34, 16.35 1.04, 18.1 2.78 C19.85 4.52, 21.15 7.6, 21.57 10.24 C21.98 12.89, 21.64 16.26, 20.58 18.66 C19.52 21.05, 17.51 23.55, 15.2 24.62 C12.89 25.69, 8.89 25.99, 6.7 25.1 C4.51 24.21, 3.04 21.81, 2.06 19.31 C1.08 16.81, 0.49 12.75, 0.83 10.11 C1.17 7.47, 2.54 5.07, 4.11 3.47 C5.68 1.86, 9.05 1.09, 10.25 0.49 C11.46 -0.11, 11.3 -0.2, 11.34 -0.12" stroke="#d3d3d3" stroke-width="2" fill="none"></path></g></svg>