<svg width="512" height="512" viewBox="0 0 512 512" fill="none" xmlns="http://www.w3.org/2000/svg"><rect width="512" height="512" rx="20" fill="#171717"/><path d="M112 429V83h150.899q56.832 0 87.992 26.993 31.062 26.993 31.062 75.089 0 31.9-13.914 54.477-14.012 22.575-39.979 34.551-25.966 12.073-61.241 12.073l6.859-9.325h16.658q20.577 0 36.745 10.797t26.456 32.883L404 429h-69.57l-50.953-112.389q-6.86-17.176-20.774-22.576-14.012-5.398-33.609-5.398h-53.893V429zm63.201-186.987h77.41q33.315 0 50.659-14.037 17.441-13.937 17.441-40.931 0-26.992-17.441-40.734-17.344-13.743-50.659-13.742h-77.41z" fill="ivory"/><circle cx="268.735" cy="211.265" r="10.735" fill="ivory"/><circle cx="268.735" cy="159.735" r="10.735" fill="ivory"/></svg>